<svg width="16" height="12" viewBox="0 0 16 12" fill="none" xmlns="http://www.w3.org/2000/svg">
<path d="M15.7821 5.18673L11.0208 0.425395C10.7303 0.134894 10.2591 0.134894 9.96863 0.425395C9.67807 0.715956 9.67807 1.18697 9.96863 1.47753L13.4599 4.96884H0.743959C0.333115 4.96884 0 5.30196 0 5.7128C0 6.12359 0.333115 6.45676 0.743959 6.45676H13.4599L9.96875 9.94807C9.67819 10.2386 9.67819 10.7096 9.96875 11.0002C10.114 11.1454 10.3044 11.2181 10.4948 11.2181C10.6852 11.2181 10.8756 11.1454 11.0209 11.0002L15.7821 6.23887C16.0727 5.94831 16.0727 5.47729 15.7821 5.18673Z" fill="white"/>
</svg>
