<?xml version="1.0" encoding="utf-8"?><svg viewBox="0 0 25 25" xmlns="http://www.w3.org/2000/svg" xmlns:xlink="http://www.w3.org/1999/xlink"><style>:root>svg{display:none}:root>svg:target{display:block}</style><svg viewBox="0 0 25 25" id="bedroom" xmlns="http://www.w3.org/2000/svg"><g clip-path="url(#aclip0_43_17)"><path d="M2.297 14.23h20.017a1.494 1.494 0 100-2.988H2.297a1.494 1.494 0 000 2.987zM13.8 8.02a.791.791 0 00-.791.79v1.025h6.119V8.81a.792.792 0 00-.79-.79h-4.539z"/><path d="M4.077 8.81a2.2 2.2 0 012.197-2.196h4.538c.576 0 1.101.223 1.494.588a2.188 2.188 0 011.493-.588h4.538a2.2 2.2 0 012.197 2.196v1.025h2.282V4.992c0-.825-.669-1.493-1.493-1.493H3.289c-.825 0-1.494.668-1.494 1.493v4.843h2.282V8.81z"/><path d="M6.274 8.02a.792.792 0 00-.79.79v1.025h6.118V8.81a.791.791 0 00-.79-.79H6.274zM.306 15.635v6.47h1.406V19.54h21.187v2.564h1.407v-6.47h-24z"/></g><defs><clipPath id="aclip0_43_17"><path transform="translate(.306 .802)" d="M0 0h24v24H0z"/></clipPath></defs></svg><svg viewBox="0 0 25 25" id="dining" xmlns="http://www.w3.org/2000/svg"><g clip-path="url(#bclip0_35_322)"><path d="M19.654 9.877c.28 0 .508-.227.508-.508V7.737a.509.509 0 00-.508-.508l-.724.004-2.375 2.644h3.099zM4.409 9.877h3.123L5.116 7.23h-.707a.509.509 0 00-.509.508V9.37c0 .28.228.508.509.508zM12.323 12.5l4.713-5.271H7.026l4.791 5.273a.34.34 0 00.506-.002zM13.65 19.918h-.876v-5.919c-.21.122-.45.188-.698.189h-.005c-.25 0-.492-.067-.704-.189v5.919h-.955a.703.703 0 000 1.406h3.237a.703.703 0 100-1.406z"/><path d="M5.962 11.834H1.439V3.498a.703.703 0 00-1.407 0v17.18a.703.703 0 001.407 0v-5.253H6.55v5.252a.703.703 0 001.407 0V13.83c0-1.1-.896-1.995-1.996-1.995zM23.328 2.795a.703.703 0 00-.703.703v8.336h-4.418c-1.1 0-1.996.895-1.996 1.995v6.848a.703.703 0 001.406 0v-5.253h5.008v5.253a.703.703 0 001.407 0V3.498a.703.703 0 00-.704-.703z"/></g><defs><clipPath id="bclip0_35_322"><path transform="translate(.032 .088)" d="M0 0h24v24H0z"/></clipPath></defs></svg><svg viewBox="0 0 25 25" id="hallway" xmlns="http://www.w3.org/2000/svg"><g clip-path="url(#cclip0_43_68)"><path d="M24.383 7.418H1.133a.375.375 0 01-.375-.375v-1.5c0-.208.167-.376.375-.376h23.25c.207 0 .375.168.375.375v1.501a.375.375 0 01-.375.375zm-22.875-.75h22.5v-.75h-22.5v.75z"/><path d="M1.508 19.05a.375.375 0 01-.375-.375V7.11a.375.375 0 11.75 0v11.565a.375.375 0 01-.375.375zM2.633 19.05a.375.375 0 01-.375-.375V7.11a.375.375 0 11.75 0v11.565a.375.375 0 01-.375.375zM22.883 19.05a.375.375 0 01-.375-.375V7.11a.375.375 0 11.75 0v11.565a.374.374 0 01-.375.375zM24.008 19.05a.375.375 0 01-.375-.375V7.11a.375.375 0 11.75 0v11.565a.374.374 0 01-.375.375z"/><path d="M2.633 19.05H1.508a.375.375 0 110-.75h1.125a.375.375 0 110 .75zM24.008 19.05h-1.125a.375.375 0 110-.75h1.125a.375.375 0 110 .75zM22.883 12.673H2.633a.375.375 0 110-.75h20.25a.374.374 0 110 .75zM22.883 13.799H2.633a.375.375 0 110-.75h20.25a.374.374 0 110 .75z"/><path d="M4.133 12.674a.375.375 0 01-.375-.375c0-1.034.84-1.875 1.874-1.875a.375.375 0 110 .75c-.62 0-1.124.504-1.124 1.125a.375.375 0 01-.375.375z"/><path d="M7.882 12.674a.375.375 0 01-.375-.375c0-.62-.504-1.125-1.124-1.125a.375.375 0 110-.75c1.034 0 1.874.84 1.874 1.875a.375.375 0 01-.375.375zM4.508 11.682a.375.375 0 01-.375-.375V9.299a.375.375 0 11.75 0v2.008a.375.375 0 01-.375.375z"/><path d="M7.506 11.682a.375.375 0 01-.375-.375V9.299a.375.375 0 11.75 0v2.008a.375.375 0 01-.375.375zM5.258 10.05a.375.375 0 01-.375-.376V8.55a.375.375 0 11.75 0v1.125a.375.375 0 01-.375.375z"/><path d="M6.758 8.924h-1.5a.375.375 0 110-.75h1.5a.375.375 0 110 .75z"/><path d="M6.758 10.05a.375.375 0 01-.375-.376V8.55a.375.375 0 11.75 0v1.125a.375.375 0 01-.375.375zM5.259 9.674h-.751a.375.375 0 110-.75h.75a.375.375 0 110 .75z"/><path d="M7.506 9.674h-.748a.375.375 0 110-.75h.748a.375.375 0 110 .75zM6.382 11.174h-.751a.375.375 0 110-.75h.751a.375.375 0 110 .75zM9.008 12.674a.375.375 0 01-.375-.375c0-1.034.84-1.875 1.874-1.875a.375.375 0 110 .75c-.62 0-1.124.504-1.124 1.125a.375.375 0 01-.375.375z"/><path d="M12.757 12.674a.375.375 0 01-.375-.375c0-.62-.504-1.125-1.124-1.125a.375.375 0 110-.75c1.034 0 1.874.84 1.874 1.875a.375.375 0 01-.375.375zM9.383 11.682a.375.375 0 01-.375-.375V9.299a.375.375 0 11.75 0v2.008a.375.375 0 01-.375.375z"/><path d="M12.38 11.682a.375.375 0 01-.374-.375V9.299a.375.375 0 11.75 0v2.008a.375.375 0 01-.375.375zM10.133 10.05a.375.375 0 01-.375-.376V8.55a.375.375 0 11.75 0v1.125a.375.375 0 01-.375.375z"/><path d="M11.633 8.924h-1.5a.375.375 0 110-.75h1.5a.375.375 0 110 .75z"/><path d="M11.633 10.05a.375.375 0 01-.375-.376V8.55a.375.375 0 11.75 0v1.125a.375.375 0 01-.375.375zM10.133 9.674h-.75a.375.375 0 110-.75h.75a.375.375 0 110 .75z"/><path d="M12.381 9.674h-.748a.375.375 0 110-.75h.748a.375.375 0 110 .75zM11.257 11.174h-.751a.375.375 0 110-.75h.751a.374.374 0 110 .75zM12.766 18.3a.375.375 0 01-.375-.376c0-.62.505-1.125 1.125-1.125a.375.375 0 110 .75.376.376 0 00-.375.375.375.375 0 01-.375.375zM16.518 18.3a.375.375 0 01-.375-.376.375.375 0 00-.375-.375.375.375 0 110-.75c.62 0 1.125.505 1.125 1.125a.375.375 0 01-.375.375zM16.517 19.05h-3.751a.375.375 0 110-.75h3.751a.375.375 0 110 .75z"/><path d="M15.797 17.549h-2.31a.375.375 0 110-.75h2.31a.374.374 0 110 .75z"/><path d="M13.516 17.549a.375.375 0 01-.375-.375v-2.25a.375.375 0 11.75 0v2.25a.375.375 0 01-.375.375zM15.768 17.55a.375.375 0 01-.375-.376v-2.25a.375.375 0 11.75 0v2.25a.375.375 0 01-.375.375zM12.766 19.05a.375.375 0 01-.375-.375v-.75a.375.375 0 11.75 0v.75a.375.375 0 01-.375.375zM16.518 19.05a.375.375 0 01-.375-.375v-.75a.375.375 0 11.75 0v.75a.375.375 0 01-.375.375z"/><path d="M15.767 15.3h-2.251a.375.375 0 110-.75h2.251a.375.375 0 110 .75zM16.142 16.424H13.14a.375.375 0 110-.75h3a.375.375 0 110 .75zM17.64 18.3a.375.375 0 01-.374-.376c0-.62.505-1.125 1.125-1.125a.375.375 0 110 .75.376.376 0 00-.375.375.375.375 0 01-.375.375zM21.393 18.3a.375.375 0 01-.375-.376.375.375 0 00-.375-.375.375.375 0 110-.75c.62 0 1.125.505 1.125 1.125a.375.375 0 01-.375.375zM21.392 19.05H17.64a.375.375 0 110-.75h3.751a.375.375 0 110 .75z"/><path d="M20.672 17.549h-2.31a.375.375 0 110-.75h2.31a.374.374 0 110 .75z"/><path d="M18.39 17.549a.375.375 0 01-.374-.375v-2.25a.375.375 0 11.75 0v2.25a.375.375 0 01-.375.375zM20.643 17.55a.375.375 0 01-.375-.376v-2.25a.375.375 0 11.75 0v2.25a.375.375 0 01-.375.375zM17.64 19.05a.375.375 0 01-.374-.375v-.75a.375.375 0 11.75 0v.75a.375.375 0 01-.375.375zM21.393 19.05a.375.375 0 01-.375-.375v-.75a.375.375 0 11.75 0v.75a.375.375 0 01-.375.375z"/><path d="M20.642 15.3h-2.251a.375.375 0 110-.75h2.251a.375.375 0 110 .75zM21.017 16.424h-3.001a.375.375 0 110-.75h3a.375.375 0 110 .75z"/></g><defs><clipPath id="cclip0_43_68"><path transform="translate(.758 .105)" d="M0 0h24v24H0z"/></clipPath></defs></svg><svg viewBox="0 0 25 25" id="kitchen" xmlns="http://www.w3.org/2000/svg"><g clip-path="url(#dclip0_31_307)"><path d="M.764 24.968h9.886v-5.67H.764v5.67zm2.162-4.202h5.608v1.406H2.926v-1.406zM.764 17.893h9.886v-5.576H.764v5.576zm2.162-4.08h5.608v1.405H2.926v-1.405zM12.055 24.968h12.697v-12.65H12.055v12.65zm8.433-11.155h1.406v1.44h-1.406v-1.44zm-2.81 0h1.405v1.44h-1.406v-1.44zm-2.812 0h1.405v1.44h-1.405v-1.44zm0 2.698h7.028v5.645h-7.028v-5.645zM20.488 4.208V.968h-4.216V4.21l-4.217 2.812v2.484h12.697V7.019l-4.264-2.811z"/></g><defs><clipPath id="dclip0_31_307"><path transform="translate(.758 .968)" d="M0 0h24v24H0z"/></clipPath></defs></svg><svg viewBox="0 0 11 10" id="like" xmlns="http://www.w3.org/2000/svg"><path d="M5.941 9.184a.586.586 0 01-.386-.145c-.404-.353-.794-.685-1.137-.978l-.002-.001C3.409 7.2 2.539 6.46 1.933 5.73 1.257 4.912.941 4.138.941 3.292c0-.822.282-1.58.794-2.135a2.689 2.689 0 012-.87c.577 0 1.106.182 1.571.542.235.182.448.404.635.663.188-.259.4-.481.636-.663.465-.36.994-.542 1.57-.542.773 0 1.484.309 2.001.87.512.555.793 1.313.793 2.135 0 .846-.315 1.62-.991 2.436-.606.73-1.476 1.472-2.483 2.33-.344.294-.734.626-1.14.98a.587.587 0 01-.386.145zM3.735.874a2.11 2.11 0 00-1.57.681c-.411.447-.638 1.064-.638 1.738 0 .711.264 1.347.857 2.062.573.692 1.425 1.418 2.412 2.259l.002.001c.345.294.736.628 1.143.983.409-.356.8-.69 1.146-.984.987-.841 1.839-1.567 2.412-2.259.592-.715.857-1.35.857-2.062 0-.674-.227-1.291-.639-1.738a2.11 2.11 0 00-1.57-.682c-.444 0-.852.142-1.212.42a2.843 2.843 0 00-.676.782.367.367 0 01-.318.18.367.367 0 01-.317-.18 2.84 2.84 0 00-.676-.782 1.943 1.943 0 00-1.213-.42z"/></svg><svg viewBox="0 0 25 25" id="office" xmlns="http://www.w3.org/2000/svg"><g clip-path="url(#fclip0_37_327)"><path d="M24.055 7.123V2.436c0-.905-.736-1.64-1.64-1.64h-8.438c-.905 0-1.641.735-1.641 1.64v4.687c0 .905.736 1.64 1.64 1.64h1.912l-.351 1.407h-3.935l-.143-3.142a2.106 2.106 0 00-2.107-2.014H5.477c-1.13 0-2.056.884-2.108 2.014l-.142 3.142H.757a.703.703 0 00-.702.703v12.188a.703.703 0 001.406 0v-8.672h1.598c.051.579.294 1.118.703 1.547.416.435.955.704 1.543.776v1.192c0 .826.612 1.51 1.406 1.624v1.69l-2.771.792a.703.703 0 00-.51.676v1.406a.703.703 0 101.406 0v-.876l1.875-.536v.943a.703.703 0 001.406 0v-.943l1.875.536v.876a.703.703 0 101.406 0v-1.406a.703.703 0 00-.51-.676l-2.77-.792v-1.69a1.643 1.643 0 001.405-1.623v-1.193a2.552 2.552 0 001.543-.776c.41-.428.652-.968.703-1.547h1.504v8.672a.703.703 0 001.407 0v-2.11h7.968v2.11a.703.703 0 101.407 0V10.873a.703.703 0 00-.703-.703h-2.498l-.352-1.406h1.912c.905 0 1.64-.736 1.64-1.64zm-20.956 5.86H1.46v-1.407h1.702l-.064 1.407zm5.018 4.921c0 .13-.105.235-.234.235h-.938a.235.235 0 01-.234-.235v-1.171h1.406v1.171zm1.932-2.94a1.161 1.161 0 01-.847.362H5.626c-.323 0-.624-.128-.847-.362a1.161 1.161 0 01-.323-.863l.318-7.01a.702.702 0 01.703-.67H9.35c.377 0 .686.294.703.67l.319 7.01c.014.323-.1.63-.324.863zm12.6 4.581h-7.97V14.39h7.97v5.156zm0-7.969v1.407h-10.92l-.063-1.407h10.982zm-5.663-1.406l.352-1.406h1.715l.351 1.406h-2.418zm-3.01-2.812a.235.235 0 01-.234-.235V2.436c0-.13.105-.235.235-.235h8.437c.13 0 .234.106.234.235v4.687c0 .13-.105.235-.234.235h-8.437z"/><path d="M17.258 17.201h2.812a.703.703 0 000-1.406h-2.812a.703.703 0 000 1.406z"/></g><defs><clipPath id="fclip0_37_327"><path transform="translate(.055 .795)" d="M0 0h24v24H0z"/></clipPath></defs></svg><svg viewBox="0 0 16 16" id="search" xmlns="http://www.w3.org/2000/svg"><path fill-rule="evenodd" clip-rule="evenodd" d="M7.25 2.166a5.083 5.083 0 100 10.167 5.083 5.083 0 000-10.167zM.835 7.25a6.417 6.417 0 1111.399 4.044l2.739 2.734a.667.667 0 11-.942.944l-2.74-2.736A6.417 6.417 0 01.834 7.25z"/></svg><svg viewBox="0 0 10 11" id="share" xmlns="http://www.w3.org/2000/svg"><path d="M7.871 7.225c-.579 0-1.093.281-1.414.714L3.698 6.53a1.753 1.753 0 00-.057-1.155l2.892-1.737c.323.379.803.62 1.338.62A1.76 1.76 0 009.63 2.498 1.76 1.76 0 007.87.74a1.76 1.76 0 00-1.639 2.393L3.333 4.876a1.754 1.754 0 00-1.321-.6A1.76 1.76 0 00.254 6.034 1.757 1.757 0 003.44 7.056l2.751 1.406a1.76 1.76 0 001.679 2.279A1.76 1.76 0 009.63 8.983 1.76 1.76 0 007.87 7.225zm0-5.898c.646 0 1.172.525 1.172 1.172 0 .646-.526 1.171-1.172 1.171A1.173 1.173 0 016.7 2.5c0-.647.526-1.172 1.172-1.172zm-5.86 5.879A1.173 1.173 0 01.84 6.034c0-.646.526-1.172 1.172-1.172.646 0 1.172.526 1.172 1.172 0 .646-.526 1.172-1.172 1.172zm5.86 2.949A1.173 1.173 0 016.7 8.983c0-.646.526-1.172 1.172-1.172.646 0 1.172.526 1.172 1.172 0 .646-.526 1.172-1.172 1.172z"/></svg><svg viewBox="0 0 25 25" id="sofa" xmlns="http://www.w3.org/2000/svg"><g clip-path="url(#iclip0_31_160)"><path d="M5.188 12.264h6.141c.54 0 1.033.205 1.406.54a2.1 2.1 0 011.407-.54h6.14v-7.54a.705.705 0 00-.695-.71H5.892c-.4 0-.704.328-.704.71v7.54zM13.438 14.374v1.64h6.844v-2.343h-6.14a.704.704 0 00-.704.703z"/><path d="M22.462 8.89a.807.807 0 00-.773.811v7.017a.703.703 0 01-.704.703h-16.5a.703.703 0 01-.703-.703V9.7a.807.807 0 00-.774-.81 2.202 2.202 0 00-2.273 2.202v7.218a2.11 2.11 0 002.11 2.11h.937v.777c0 .378.291.704.67.722a.703.703 0 00.736-.702v-.797h15.094v.777c0 .378.291.704.67.722a.703.703 0 00.736-.702v-.797h.938a2.11 2.11 0 002.11-2.11v-7.179c0-1.298-1.032-2.28-2.274-2.241z"/><path d="M12.032 14.374a.704.704 0 00-.703-.703H5.19v2.343h6.843v-1.64z"/></g><defs><clipPath id="iclip0_31_160"><path transform="translate(.735 .968)" d="M0 0h24v24H0z"/></clipPath></defs></svg></svg>